<?xml version="1.0" encoding="utf-8"?>
<!-- Generator: Adobe Illustrator 15.1.0, SVG Export Plug-In . SVG Version: 6.00 Build 0)  -->
<!DOCTYPE svg PUBLIC "-//W3C//DTD SVG 1.1//EN" "http://www.w3.org/Graphics/SVG/1.1/DTD/svg11.dtd">
<svg version="1.1" id="Layer_1" xmlns="http://www.w3.org/2000/svg" xmlns:xlink="http://www.w3.org/1999/xlink" x="0px" y="0px"
	 width="595.28px" height="240px" viewBox="0 360 595.28 100" enable-background="new 0 0 595.28 841.89" xml:space="preserve">
<g>
	<g>
		<path fill="#A1142B" d="M406.109,452.118v6.252h-29.322v-4.944l15.797-15.003c1.781-1.704,2.984-3.19,3.609-4.46
			c0.625-1.269,0.938-2.529,0.938-3.779c0-1.856-0.625-3.276-1.875-4.263c-1.25-0.984-3.088-1.477-5.512-1.477
			c-4.055,0-7.162,1.383-9.32,4.148l-5.172-3.979c1.553-2.082,3.646-3.702,6.279-4.858c2.633-1.155,5.578-1.733,8.838-1.733
			c4.318,0,7.766,1.023,10.342,3.068c2.576,2.046,3.865,4.83,3.865,8.354c0,2.159-0.455,4.187-1.365,6.08
			c-0.908,1.895-2.652,4.054-5.227,6.479l-10.629,10.114H406.109z"/>
		<path fill="#A1142B" d="M418.139,450.25c-2.5-1.609-4.471-3.958-5.91-7.046s-2.158-6.753-2.158-10.996s0.719-7.908,2.158-10.996
			s3.41-5.436,5.91-7.047c2.5-1.609,5.342-2.415,8.525-2.415c3.182,0,6.031,0.806,8.553,2.415c2.518,1.611,4.498,3.959,5.938,7.047
			s2.16,6.753,2.16,10.996s-0.721,7.908-2.16,10.996s-3.42,5.437-5.938,7.046c-2.521,1.61-5.371,2.415-8.553,2.415
			C423.48,452.665,420.639,451.86,418.139,450.25 M433.398,442.72c1.646-2.348,2.471-5.853,2.471-10.512
			c0-4.66-0.824-8.164-2.471-10.514c-1.648-2.348-3.895-3.523-6.734-3.523c-2.805,0-5.029,1.176-6.678,3.523
			c-1.648,2.35-2.473,5.854-2.473,10.514c0,4.659,0.824,8.164,2.473,10.512c1.648,2.35,3.873,3.523,6.678,3.523
			C429.504,446.243,431.75,445.069,433.398,442.72"/>
		<path fill="#A1142B" d="M481.201,446.325v7.627h-35.779v-6.033l19.275-18.306c2.174-2.08,3.643-3.894,4.404-5.442
			c0.764-1.549,1.145-3.086,1.145-4.611c0-2.266-0.764-3.999-2.289-5.201c-1.525-1.201-3.768-1.803-6.725-1.803
			c-4.949,0-8.738,1.688-11.373,5.063l-6.311-4.855c1.895-2.541,4.449-4.518,7.664-5.928c3.211-1.41,6.805-2.115,10.781-2.115
			c5.27,0,9.477,1.248,12.621,3.744c3.143,2.496,4.715,5.895,4.715,10.193c0,2.635-0.555,5.109-1.666,7.42
			c-1.109,2.312-3.234,4.947-6.377,7.904l-12.969,12.344H481.201z"/>
		<polygon fill="#A1142B" points="523.523,414.004 523.523,420.036 504.664,462.542 495.025,462.542 513.262,421.632 
			494.193,421.632 494.193,429.884 485.803,429.884 485.803,414.004 		"/>
		<polygon fill="#A1142B" points="413.02,471.638 413.02,482.915 411.295,482.915 405.076,475.278 405.076,482.915 402.998,482.915 
			402.998,471.638 404.723,471.638 410.941,479.274 410.941,471.638 		"/>
		<path fill="#A1142B" d="M422.049,475.126c0.672,0.606,1.008,1.521,1.008,2.746v5.043h-1.902v-1.047
			c-0.246,0.375-0.598,0.663-1.055,0.861c-0.457,0.199-1.006,0.299-1.65,0.299s-1.209-0.11-1.691-0.331
			c-0.484-0.22-0.857-0.526-1.121-0.918c-0.262-0.392-0.395-0.835-0.395-1.329c0-0.773,0.289-1.394,0.861-1.86
			c0.576-0.468,1.48-0.701,2.717-0.701h2.223v-0.129c0-0.602-0.18-1.063-0.541-1.386c-0.359-0.322-0.893-0.482-1.602-0.482
			c-0.484,0-0.959,0.074-1.426,0.225s-0.861,0.359-1.186,0.629l-0.789-1.467c0.451-0.344,0.994-0.605,1.629-0.789
			c0.633-0.183,1.303-0.273,2.014-0.273C420.408,474.216,421.379,474.519,422.049,475.126 M420.213,481.216
			c0.393-0.231,0.668-0.562,0.83-0.991v-0.999h-2.078c-1.16,0-1.74,0.381-1.74,1.145c0,0.365,0.145,0.654,0.434,0.869
			c0.291,0.215,0.693,0.322,1.209,0.322C419.373,481.562,419.82,481.446,420.213,481.216"/>
		<path fill="#A1142B" d="M427.262,482.464c-0.709-0.375-1.264-0.899-1.66-1.57c-0.396-0.672-0.596-1.432-0.596-2.28
			c0-0.848,0.199-1.605,0.596-2.271c0.396-0.666,0.947-1.188,1.65-1.563s1.508-0.563,2.41-0.563c0.848,0,1.592,0.172,2.23,0.516
			s1.119,0.837,1.441,1.481l-1.547,0.902c-0.246-0.397-0.555-0.694-0.926-0.894s-0.775-0.299-1.217-0.299
			c-0.752,0-1.375,0.244-1.867,0.733c-0.494,0.488-0.742,1.142-0.742,1.957c0,0.816,0.244,1.47,0.732,1.958
			c0.49,0.488,1.115,0.732,1.877,0.732c0.441,0,0.846-0.1,1.217-0.298s0.68-0.497,0.926-0.894l1.547,0.902
			c-0.332,0.644-0.818,1.141-1.457,1.49c-0.639,0.349-1.377,0.523-2.215,0.523C428.77,483.028,427.971,482.84,427.262,482.464"/>
		<path fill="#A1142B" d="M435.17,472.548c-0.246-0.23-0.369-0.518-0.369-0.861s0.123-0.632,0.369-0.862
			c0.248-0.231,0.555-0.347,0.92-0.347s0.67,0.11,0.918,0.33c0.246,0.221,0.371,0.497,0.371,0.83c0,0.354-0.121,0.652-0.363,0.895
			c-0.242,0.241-0.551,0.361-0.926,0.361C435.725,472.894,435.418,472.779,435.17,472.548 M435.074,474.312h2.014v8.604h-2.014
			V474.312z"/>
		<path fill="#A1142B" d="M441.244,482.464c-0.697-0.375-1.244-0.899-1.635-1.57c-0.393-0.672-0.588-1.432-0.588-2.28
			c0-0.848,0.195-1.605,0.588-2.271c0.391-0.666,0.938-1.188,1.635-1.563c0.699-0.376,1.482-0.563,2.352-0.563
			c0.881,0,1.672,0.188,2.369,0.563c0.699,0.376,1.244,0.897,1.635,1.563c0.393,0.665,0.588,1.423,0.588,2.271
			c0,0.849-0.195,1.608-0.588,2.28c-0.391,0.671-0.936,1.195-1.635,1.57c-0.697,0.376-1.488,0.564-2.369,0.564
			C442.727,483.028,441.943,482.84,441.244,482.464 M445.434,480.563c0.482-0.494,0.725-1.145,0.725-1.95s-0.242-1.455-0.725-1.949
			c-0.484-0.493-1.096-0.741-1.838-0.741c-0.74,0-1.35,0.248-1.828,0.741c-0.479,0.494-0.717,1.144-0.717,1.949
			s0.238,1.456,0.717,1.95c0.479,0.493,1.088,0.74,1.828,0.74C444.338,481.304,444.949,481.057,445.434,480.563"/>
		<path fill="#A1142B" d="M457.613,475.166c0.654,0.634,0.982,1.573,0.982,2.819v4.93h-2.014v-4.672
			c0-0.752-0.178-1.318-0.533-1.699c-0.354-0.382-0.857-0.572-1.514-0.572c-0.74,0-1.326,0.223-1.756,0.668
			c-0.43,0.446-0.645,1.088-0.645,1.926v4.35h-2.014v-8.604h1.916v1.112c0.334-0.397,0.752-0.698,1.258-0.902
			c0.504-0.204,1.074-0.306,1.707-0.306C456.088,474.216,456.957,474.532,457.613,475.166"/>
		<path fill="#A1142B" d="M467.352,475.126c0.672,0.606,1.006,1.521,1.006,2.746v5.043h-1.9v-1.047
			c-0.246,0.375-0.598,0.663-1.055,0.861c-0.457,0.199-1.008,0.299-1.65,0.299c-0.645,0-1.209-0.11-1.693-0.331
			c-0.482-0.22-0.855-0.526-1.119-0.918s-0.395-0.835-0.395-1.329c0-0.773,0.287-1.394,0.861-1.86
			c0.574-0.468,1.48-0.701,2.715-0.701h2.223v-0.129c0-0.602-0.18-1.063-0.539-1.386s-0.895-0.482-1.604-0.482
			c-0.482,0-0.959,0.074-1.426,0.225s-0.861,0.359-1.184,0.629l-0.789-1.467c0.451-0.344,0.992-0.605,1.627-0.789
			c0.633-0.183,1.305-0.273,2.014-0.273C465.711,474.216,466.68,474.519,467.352,475.126 M461.834,471.429h5.574v1.208h-5.574
			V471.429z M465.516,481.216c0.391-0.231,0.668-0.562,0.828-0.991v-0.999h-2.078c-1.158,0-1.738,0.381-1.738,1.145
			c0,0.365,0.145,0.654,0.434,0.869c0.291,0.215,0.693,0.322,1.209,0.322C464.674,481.562,465.123,481.446,465.516,481.216"/>
		<rect x="470.936" y="470.961" fill="#A1142B" width="2.014" height="11.954"/>
		<path fill="#A1142B" d="M481.787,475.126c0.67,0.606,1.006,1.521,1.006,2.746v5.043h-1.9v-1.047
			c-0.248,0.375-0.6,0.663-1.057,0.861c-0.455,0.199-1.006,0.299-1.65,0.299s-1.209-0.11-1.691-0.331
			c-0.484-0.22-0.857-0.526-1.121-0.918c-0.262-0.392-0.395-0.835-0.395-1.329c0-0.773,0.287-1.394,0.863-1.86
			c0.574-0.468,1.479-0.701,2.715-0.701h2.223v-0.129c0-0.602-0.18-1.063-0.539-1.386c-0.361-0.322-0.895-0.482-1.604-0.482
			c-0.484,0-0.959,0.074-1.426,0.225s-0.863,0.359-1.184,0.629l-0.791-1.467c0.451-0.344,0.994-0.605,1.627-0.789
			c0.635-0.183,1.307-0.273,2.016-0.273C480.145,474.216,481.115,474.519,481.787,475.126 M479.949,481.216
			c0.393-0.231,0.67-0.562,0.83-0.991v-0.999h-2.078c-1.16,0-1.74,0.381-1.74,1.145c0,0.365,0.145,0.654,0.436,0.869
			c0.289,0.215,0.691,0.322,1.207,0.322C479.109,481.562,479.557,481.446,479.949,481.216"/>
		<path fill="#A1142B" d="M485.467,472.548c-0.246-0.23-0.371-0.518-0.371-0.861s0.125-0.632,0.371-0.862
			c0.248-0.231,0.553-0.347,0.918-0.347c0.367,0,0.672,0.11,0.918,0.33c0.248,0.221,0.371,0.497,0.371,0.83
			c0,0.354-0.121,0.652-0.361,0.895c-0.242,0.241-0.551,0.361-0.928,0.361C486.02,472.894,485.715,472.779,485.467,472.548
			 M485.371,474.312h2.014v8.604h-2.014V474.312z"/>
		<path fill="#A1142B" d="M490.639,482.754c-0.666-0.183-1.197-0.413-1.596-0.692l0.773-1.531c0.387,0.258,0.852,0.465,1.395,0.621
			c0.541,0.155,1.076,0.232,1.602,0.232c1.203,0,1.805-0.316,1.805-0.949c0-0.301-0.152-0.51-0.459-0.629
			c-0.307-0.118-0.797-0.23-1.473-0.338c-0.709-0.107-1.287-0.231-1.732-0.371c-0.447-0.14-0.834-0.384-1.16-0.732
			c-0.328-0.35-0.492-0.836-0.492-1.459c0-0.815,0.342-1.468,1.023-1.957c0.682-0.488,1.604-0.732,2.764-0.732
			c0.59,0,1.18,0.066,1.771,0.201c0.59,0.135,1.074,0.314,1.449,0.539l-0.773,1.531c-0.729-0.43-1.551-0.645-2.465-0.645
			c-0.59,0-1.039,0.088-1.344,0.266c-0.307,0.177-0.459,0.41-0.459,0.701c0,0.322,0.162,0.551,0.49,0.684
			c0.328,0.135,0.836,0.262,1.523,0.379c0.686,0.107,1.25,0.231,1.691,0.371c0.439,0.14,0.818,0.376,1.135,0.709
			s0.475,0.805,0.475,1.418c0,0.805-0.348,1.449-1.047,1.933c-0.697,0.483-1.648,0.726-2.85,0.726
			C491.986,483.028,491.303,482.937,490.639,482.754"/>
		<path fill="#A1142B" d="M393.783,492.637c0.672,0.606,1.008,1.522,1.008,2.747v5.043h-1.9v-1.047
			c-0.248,0.375-0.6,0.662-1.057,0.861s-1.006,0.299-1.65,0.299s-1.209-0.111-1.693-0.331c-0.482-0.22-0.855-0.526-1.119-0.919
			c-0.264-0.391-0.395-0.834-0.395-1.328c0-0.773,0.287-1.395,0.863-1.861c0.572-0.467,1.479-0.7,2.713-0.7h2.223v-0.13
			c0-0.602-0.178-1.063-0.539-1.385c-0.359-0.322-0.895-0.483-1.604-0.483c-0.482,0-0.957,0.075-1.424,0.226
			c-0.469,0.15-0.863,0.359-1.186,0.628l-0.789-1.466c0.451-0.344,0.994-0.606,1.627-0.789c0.633-0.184,1.305-0.273,2.014-0.273
			C392.143,491.728,393.111,492.03,393.783,492.637 M391.947,498.728c0.391-0.231,0.668-0.563,0.828-0.992v-0.998h-2.078
			c-1.158,0-1.738,0.381-1.738,1.144c0,0.365,0.145,0.655,0.436,0.87c0.289,0.215,0.691,0.322,1.207,0.322
			C391.107,499.073,391.555,498.958,391.947,498.728"/>
		<path fill="#A1142B" d="M402.539,499.96c-0.236,0.192-0.523,0.338-0.861,0.434c-0.338,0.098-0.695,0.146-1.07,0.146
			c-0.947,0-1.678-0.248-2.193-0.742c-0.514-0.494-0.771-1.213-0.771-2.158v-4.141h-1.418v-1.611h1.418v-1.965h2.014v1.965h2.303
			v1.611h-2.303v4.092c0,0.419,0.102,0.738,0.307,0.959c0.203,0.221,0.498,0.33,0.885,0.33c0.451,0,0.826-0.118,1.129-0.354
			L402.539,499.96z"/>
		<path fill="#A1142B" d="M409.16,499.96c-0.236,0.192-0.523,0.338-0.861,0.434c-0.338,0.098-0.695,0.146-1.07,0.146
			c-0.945,0-1.676-0.248-2.191-0.742s-0.773-1.213-0.773-2.158v-4.141h-1.418v-1.611h1.418v-1.965h2.014v1.965h2.305v1.611h-2.305
			v4.092c0,0.419,0.102,0.738,0.307,0.959c0.203,0.221,0.498,0.33,0.885,0.33c0.453,0,0.828-0.118,1.129-0.354L409.16,499.96z"/>
		<path fill="#A1142B" d="M409.564,488.939h4.543v1.208h-4.543V488.939z M410.82,491.823h2.014v8.604h-2.014V491.823z"/>
		<path fill="#A1142B" d="M416.088,500.265c-0.666-0.182-1.197-0.412-1.594-0.691l0.773-1.531c0.387,0.258,0.85,0.465,1.393,0.62
			c0.543,0.156,1.078,0.233,1.604,0.233c1.203,0,1.805-0.316,1.805-0.95c0-0.301-0.154-0.51-0.459-0.628
			c-0.307-0.118-0.799-0.231-1.475-0.339c-0.709-0.106-1.287-0.231-1.732-0.37c-0.445-0.14-0.832-0.385-1.16-0.732
			c-0.328-0.35-0.49-0.836-0.49-1.459c0-0.816,0.34-1.469,1.021-1.957s1.604-0.732,2.764-0.732c0.59,0,1.182,0.066,1.771,0.201
			c0.592,0.134,1.074,0.313,1.451,0.539l-0.773,1.53c-0.73-0.429-1.553-0.644-2.465-0.644c-0.592,0-1.039,0.088-1.346,0.266
			c-0.307,0.177-0.459,0.41-0.459,0.7c0,0.322,0.164,0.551,0.49,0.685c0.328,0.135,0.836,0.261,1.523,0.379
			c0.688,0.107,1.252,0.23,1.691,0.371c0.441,0.139,0.818,0.375,1.137,0.709c0.316,0.332,0.475,0.805,0.475,1.417
			c0,0.806-0.35,1.45-1.047,1.933c-0.699,0.484-1.648,0.727-2.852,0.727C417.436,500.54,416.754,500.448,416.088,500.265"/>
		<path fill="#A1142B" d="M428.945,499.96c-0.238,0.192-0.523,0.338-0.863,0.434c-0.338,0.098-0.695,0.146-1.07,0.146
			c-0.945,0-1.676-0.248-2.191-0.742s-0.773-1.213-0.773-2.158v-4.141h-1.418v-1.611h1.418v-1.965h2.014v1.965h2.305v1.611h-2.305
			v4.092c0,0.419,0.102,0.738,0.307,0.959c0.203,0.221,0.5,0.33,0.885,0.33c0.451,0,0.828-0.118,1.129-0.354L428.945,499.96z"/>
		<path fill="#A1142B" d="M429.348,488.939h4.543v1.208h-4.543V488.939z M430.604,491.823h2.014v8.604h-2.014V491.823z"/>
		<path fill="#A1142B" d="M442.275,492.274c0.662,0.365,1.178,0.881,1.555,1.547s0.564,1.434,0.564,2.303
			c0,0.871-0.188,1.642-0.564,2.313c-0.377,0.672-0.893,1.189-1.555,1.555c-0.66,0.365-1.41,0.549-2.246,0.549
			c-0.592,0-1.131-0.104-1.619-0.307c-0.49-0.205-0.9-0.511-1.234-0.918v1.111h-1.916v-11.955h2.014v4.398
			c0.344-0.375,0.748-0.66,1.217-0.854c0.467-0.193,0.98-0.289,1.539-0.289C440.865,491.728,441.615,491.909,442.275,492.274
			 M441.631,498.074c0.479-0.494,0.717-1.144,0.717-1.95c0-0.805-0.238-1.454-0.717-1.948c-0.477-0.494-1.086-0.741-1.828-0.741
			c-0.482,0-0.918,0.109-1.305,0.33s-0.693,0.535-0.918,0.942c-0.227,0.408-0.338,0.881-0.338,1.417
			c0,0.538,0.111,1.011,0.338,1.419c0.225,0.407,0.531,0.722,0.918,0.942s0.822,0.33,1.305,0.33
			C440.545,498.815,441.154,498.568,441.631,498.074"/>
		<path fill="#A1142B" d="M452.393,492.637c0.672,0.606,1.008,1.522,1.008,2.747v5.043h-1.902v-1.047
			c-0.246,0.375-0.598,0.662-1.055,0.861s-1.006,0.299-1.65,0.299s-1.209-0.111-1.691-0.331c-0.484-0.22-0.857-0.526-1.121-0.919
			c-0.264-0.391-0.395-0.834-0.395-1.328c0-0.773,0.287-1.395,0.863-1.861c0.574-0.467,1.479-0.7,2.713-0.7h2.225v-0.13
			c0-0.602-0.18-1.063-0.541-1.385c-0.359-0.322-0.893-0.483-1.602-0.483c-0.484,0-0.959,0.075-1.426,0.226
			c-0.469,0.15-0.863,0.359-1.186,0.628l-0.789-1.466c0.451-0.344,0.994-0.606,1.627-0.789c0.635-0.184,1.305-0.273,2.014-0.273
			C450.752,491.728,451.721,492.03,452.393,492.637 M450.557,498.728c0.393-0.231,0.668-0.563,0.83-0.992v-0.998h-2.078
			c-1.16,0-1.74,0.381-1.74,1.144c0,0.365,0.145,0.655,0.434,0.87c0.291,0.215,0.693,0.322,1.209,0.322
			C449.717,499.073,450.164,498.958,450.557,498.728"/>
		<path fill="#A1142B" d="M456.59,500.265c-0.666-0.182-1.197-0.412-1.594-0.691l0.771-1.531c0.387,0.258,0.852,0.465,1.395,0.62
			c0.543,0.156,1.076,0.233,1.604,0.233c1.203,0,1.805-0.316,1.805-0.95c0-0.301-0.154-0.51-0.461-0.628
			c-0.305-0.118-0.797-0.231-1.473-0.339c-0.709-0.106-1.287-0.231-1.732-0.37c-0.445-0.14-0.834-0.385-1.16-0.732
			c-0.328-0.35-0.492-0.836-0.492-1.459c0-0.816,0.342-1.469,1.023-1.957s1.604-0.732,2.764-0.732c0.59,0,1.182,0.066,1.771,0.201
			c0.592,0.134,1.074,0.313,1.449,0.539l-0.771,1.53c-0.73-0.429-1.553-0.644-2.467-0.644c-0.59,0-1.039,0.088-1.344,0.266
			c-0.307,0.177-0.459,0.41-0.459,0.7c0,0.322,0.162,0.551,0.49,0.685c0.328,0.135,0.836,0.261,1.523,0.379
			c0.686,0.107,1.25,0.23,1.691,0.371c0.439,0.139,0.818,0.375,1.135,0.709c0.316,0.332,0.475,0.805,0.475,1.417
			c0,0.806-0.348,1.45-1.045,1.933c-0.699,0.484-1.648,0.727-2.852,0.727C457.938,500.54,457.256,500.448,456.59,500.265"/>
		<path fill="#A1142B" d="M475.736,492.274c0.662,0.365,1.18,0.881,1.555,1.547c0.377,0.666,0.564,1.434,0.564,2.303
			c0,0.871-0.188,1.642-0.564,2.313c-0.375,0.672-0.893,1.189-1.555,1.555c-0.66,0.365-1.41,0.549-2.246,0.549
			c-1.16,0-2.08-0.388-2.756-1.16v4.172h-2.014v-11.729h1.918v1.128c0.332-0.408,0.742-0.714,1.23-0.918
			c0.49-0.204,1.029-0.306,1.621-0.306C474.326,491.728,475.076,491.909,475.736,492.274 M475.092,498.074
			c0.479-0.494,0.719-1.144,0.719-1.95c0-0.805-0.24-1.454-0.719-1.948c-0.477-0.494-1.086-0.741-1.828-0.741
			c-0.482,0-0.918,0.109-1.305,0.33s-0.693,0.535-0.918,0.942c-0.227,0.408-0.338,0.881-0.338,1.417
			c0,0.538,0.111,1.011,0.338,1.419c0.225,0.407,0.531,0.722,0.918,0.942s0.822,0.33,1.305,0.33
			C474.006,498.815,474.615,498.568,475.092,498.074"/>
		<rect x="479.771" y="488.472" fill="#A1142B" width="2.016" height="11.955"/>
		<path fill="#A1142B" d="M490.623,492.637c0.67,0.606,1.006,1.522,1.006,2.747v5.043h-1.9v-1.047
			c-0.248,0.375-0.6,0.662-1.055,0.861c-0.457,0.199-1.008,0.299-1.652,0.299s-1.209-0.111-1.691-0.331s-0.857-0.526-1.119-0.919
			c-0.264-0.391-0.395-0.834-0.395-1.328c0-0.773,0.287-1.395,0.861-1.861s1.479-0.7,2.715-0.7h2.223v-0.13
			c0-0.602-0.18-1.063-0.539-1.385s-0.895-0.483-1.604-0.483c-0.482,0-0.959,0.075-1.426,0.226s-0.861,0.359-1.184,0.628
			l-0.789-1.466c0.451-0.344,0.992-0.606,1.627-0.789c0.633-0.184,1.305-0.273,2.014-0.273
			C488.982,491.728,489.951,492.03,490.623,492.637 M485.104,488.939h5.576v1.208h-5.576V488.939z M488.787,498.728
			c0.391-0.231,0.668-0.563,0.828-0.992v-0.998h-2.078c-1.16,0-1.74,0.381-1.74,1.144c0,0.365,0.146,0.655,0.436,0.87
			c0.291,0.215,0.693,0.322,1.209,0.322C487.945,499.073,488.395,498.958,488.787,498.728"/>
		<path fill="#A1142B" d="M501.697,492.677c0.656,0.635,0.984,1.574,0.984,2.82v4.93h-2.014v-4.672c0-0.752-0.178-1.318-0.533-1.7
			c-0.354-0.382-0.859-0.571-1.514-0.571c-0.74,0-1.326,0.223-1.756,0.668c-0.43,0.446-0.645,1.088-0.645,1.925v4.351h-2.014v-8.604
			h1.916v1.111c0.334-0.396,0.752-0.697,1.258-0.901c0.504-0.204,1.074-0.306,1.707-0.306
			C500.174,491.728,501.043,492.044,501.697,492.677"/>
		<path fill="#A1142B" d="M505.855,500.265c-0.668-0.182-1.197-0.412-1.596-0.691l0.773-1.531c0.387,0.258,0.852,0.465,1.395,0.62
			c0.541,0.156,1.076,0.233,1.602,0.233c1.203,0,1.805-0.316,1.805-0.95c0-0.301-0.152-0.51-0.459-0.628s-0.797-0.231-1.475-0.339
			c-0.709-0.106-1.285-0.231-1.732-0.37c-0.445-0.14-0.832-0.385-1.158-0.732c-0.328-0.35-0.492-0.836-0.492-1.459
			c0-0.816,0.342-1.469,1.023-1.957s1.604-0.732,2.762-0.732c0.592,0,1.182,0.066,1.773,0.201c0.59,0.134,1.074,0.313,1.449,0.539
			l-0.773,1.53c-0.73-0.429-1.553-0.644-2.465-0.644c-0.59,0-1.039,0.088-1.344,0.266c-0.307,0.177-0.459,0.41-0.459,0.7
			c0,0.322,0.162,0.551,0.49,0.685c0.328,0.135,0.834,0.261,1.521,0.379c0.688,0.107,1.252,0.23,1.693,0.371
			c0.439,0.139,0.818,0.375,1.135,0.709c0.316,0.332,0.475,0.805,0.475,1.417c0,0.806-0.348,1.45-1.047,1.933
			c-0.697,0.484-1.648,0.727-2.852,0.727C507.203,500.54,506.52,500.448,505.855,500.265"/>
		
			<rect x="399.606" y="355.167" transform="matrix(-6.282766e-004 -1 1 -6.282766e-004 73.7306 800.5925)" fill="#9E1B34" width="74.607" height="16.574"/>
		
			<rect x="424.538" y="342.756" transform="matrix(-6.277998e-004 -1 1 -6.277998e-004 111.1137 813.131)" fill="#9E1B34" width="74.659" height="16.574"/>
	</g>
	<path fill="#034EA2" d="M143.315,476.135v-12.304h8.435v2.081H145.8v2.912h5.136v2.082H145.8v5.229H143.315z"/>
	<path fill="#034EA2" d="M153.627,466.014v-2.183h2.358v2.183H153.627z M153.627,476.135v-8.913h2.358v8.913H153.627z"/>
	<path fill="#034EA2" d="M166.356,476.135h-2.359v-4.549c0-0.962-0.05-1.584-0.151-1.867s-0.264-0.502-0.491-0.659
		c-0.227-0.156-0.499-0.235-0.818-0.235c-0.409,0-0.775,0.113-1.1,0.336c-0.325,0.225-0.547,0.521-0.667,0.891
		c-0.12,0.369-0.18,1.051-0.18,2.047v4.037h-2.359v-8.913h2.191v1.31c0.778-1.008,1.757-1.511,2.938-1.511
		c0.521,0,0.996,0.094,1.427,0.28c0.431,0.188,0.757,0.428,0.978,0.719c0.221,0.291,0.375,0.621,0.461,0.99s0.13,0.898,0.13,1.586
		V476.135z"/>
	<path fill="#034EA2" d="M170.356,469.941l-2.141-0.387c0.241-0.861,0.655-1.499,1.242-1.913c0.588-0.414,1.46-0.621,2.619-0.621
		c1.052,0,1.835,0.124,2.35,0.373c0.515,0.249,0.877,0.565,1.087,0.948c0.21,0.384,0.315,1.088,0.315,2.111l-0.025,2.753
		c0,0.783,0.038,1.361,0.113,1.733c0.076,0.372,0.217,0.771,0.424,1.195h-2.333c-0.062-0.156-0.137-0.389-0.227-0.696
		c-0.04-0.14-0.067-0.231-0.084-0.276c-0.403,0.391-0.834,0.686-1.292,0.881c-0.459,0.195-0.949,0.294-1.469,0.294
		c-0.918,0-1.641-0.249-2.17-0.747s-0.793-1.127-0.793-1.889c0-0.504,0.12-0.953,0.361-1.348s0.578-0.695,1.011-0.906
		c0.434-0.209,1.059-0.393,1.876-0.549c1.102-0.207,1.866-0.4,2.292-0.58v-0.234c0-0.453-0.112-0.776-0.336-0.97
		c-0.224-0.192-0.646-0.29-1.267-0.29c-0.42,0-0.747,0.083-0.982,0.248C170.691,469.237,170.501,469.527,170.356,469.941z
		 M173.512,471.854c-0.302,0.101-0.781,0.222-1.436,0.361c-0.654,0.14-1.083,0.276-1.284,0.411
		c-0.308,0.219-0.461,0.495-0.461,0.831c0,0.33,0.123,0.615,0.369,0.856c0.246,0.24,0.56,0.36,0.94,0.36
		c0.425,0,0.831-0.14,1.217-0.419c0.285-0.213,0.473-0.474,0.563-0.781c0.062-0.201,0.092-0.584,0.092-1.15V471.854z"/>
	<path fill="#034EA2" d="M186.106,476.135h-2.359v-4.549c0-0.962-0.05-1.584-0.151-1.867s-0.264-0.502-0.491-0.659
		c-0.227-0.156-0.499-0.235-0.818-0.235c-0.409,0-0.775,0.113-1.1,0.336c-0.325,0.225-0.547,0.521-0.667,0.891
		c-0.12,0.369-0.18,1.051-0.18,2.047v4.037h-2.359v-8.913h2.191v1.31c0.778-1.008,1.757-1.511,2.938-1.511
		c0.521,0,0.996,0.094,1.427,0.28c0.431,0.188,0.757,0.428,0.978,0.719c0.221,0.291,0.375,0.621,0.461,0.99s0.13,0.898,0.13,1.586
		V476.135z"/>
	<path fill="#034EA2" d="M187.512,473.592l2.367-0.36c0.101,0.458,0.305,0.808,0.613,1.045s0.739,0.356,1.292,0.356
		c0.61,0,1.069-0.111,1.376-0.336c0.207-0.156,0.311-0.366,0.311-0.629c0-0.18-0.056-0.328-0.167-0.445
		c-0.118-0.111-0.381-0.215-0.789-0.311c-1.902-0.42-3.108-0.803-3.618-1.15c-0.705-0.48-1.058-1.149-1.058-2.006
		c0-0.771,0.305-1.42,0.915-1.947c0.61-0.525,1.556-0.788,2.837-0.788c1.22,0,2.126,0.198,2.719,0.596
		c0.593,0.397,1.002,0.985,1.226,1.763l-2.224,0.411c-0.095-0.347-0.276-0.612-0.542-0.798c-0.266-0.184-0.645-0.276-1.137-0.276
		c-0.621,0-1.066,0.087-1.334,0.261c-0.179,0.123-0.269,0.281-0.269,0.478c0,0.168,0.078,0.311,0.235,0.429
		c0.213,0.156,0.947,0.377,2.203,0.662c1.256,0.285,2.133,0.636,2.631,1.05c0.492,0.419,0.739,1.005,0.739,1.754
		c0,0.817-0.341,1.519-1.024,2.106c-0.683,0.588-1.693,0.882-3.03,0.882c-1.214,0-2.175-0.247-2.883-0.739
		C188.193,475.105,187.73,474.438,187.512,473.592z"/>
	<path fill="#034EA2" d="M202.91,473.299l2.35,0.395c-0.302,0.861-0.779,1.518-1.431,1.968s-1.467,0.676-2.446,0.676
		c-1.55,0-2.697-0.507-3.441-1.52c-0.587-0.812-0.881-1.835-0.881-3.071c0-1.478,0.386-2.635,1.158-3.471
		c0.772-0.837,1.749-1.255,2.929-1.255c1.326,0,2.373,0.438,3.139,1.313c0.767,0.875,1.133,2.217,1.1,4.024h-5.909
		c0.017,0.699,0.207,1.243,0.571,1.632c0.363,0.39,0.817,0.584,1.359,0.584c0.37,0,0.68-0.101,0.932-0.303
		C202.591,474.07,202.781,473.746,202.91,473.299z M198.571,465.753V464.2h5.405v1.553H198.571z M203.044,470.914
		c-0.017-0.682-0.193-1.201-0.529-1.557c-0.335-0.355-0.744-0.533-1.225-0.533c-0.515,0-0.94,0.188-1.276,0.563
		c-0.336,0.375-0.501,0.885-0.495,1.527H203.044z"/>
	<path fill="#034EA2" d="M102.509,496.762v-12.304h9.124v2.081h-6.639v2.729h6.177v2.072h-6.177v3.35h6.874v2.072H102.509z"/>
	<path fill="#034EA2" d="M113.803,486.641v-2.183h2.358v2.183H113.803z M113.803,496.762v-8.913h2.358v8.913H113.803z"/>
	<path fill="#034EA2" d="M120.681,496.762h-2.358v-8.913h2.19v1.268c0.375-0.599,0.712-0.993,1.011-1.184s0.639-0.285,1.02-0.285
		c0.537,0,1.055,0.147,1.553,0.444l-0.73,2.057c-0.397-0.258-0.767-0.387-1.108-0.387c-0.33,0-0.61,0.092-0.839,0.273
		s-0.41,0.511-0.541,0.986c-0.132,0.476-0.197,1.472-0.197,2.988V496.762z"/>
	<path fill="#034EA2" d="M124.413,492.18c0-0.783,0.193-1.541,0.579-2.275c0.386-0.732,0.933-1.292,1.641-1.678
		c0.708-0.387,1.498-0.579,2.371-0.579c1.349,0,2.454,0.438,3.315,1.313c0.861,0.875,1.292,1.982,1.292,3.319
		c0,1.349-0.435,2.466-1.305,3.353s-1.965,1.331-3.286,1.331c-0.817,0-1.596-0.185-2.337-0.554s-1.305-0.911-1.691-1.625
		C124.605,494.072,124.413,493.203,124.413,492.18z M126.83,492.306c0,0.884,0.21,1.562,0.629,2.03
		c0.42,0.471,0.937,0.705,1.553,0.705s1.132-0.234,1.549-0.705c0.417-0.469,0.625-1.152,0.625-2.047
		c0-0.873-0.208-1.545-0.625-2.015c-0.417-0.47-0.933-0.705-1.549-0.705s-1.133,0.235-1.553,0.705
		C127.04,490.744,126.83,491.422,126.83,492.306z"/>
	<path fill="#034EA2" d="M135.236,487.849h2.199v1.31c0.285-0.447,0.671-0.812,1.158-1.092c0.487-0.279,1.027-0.419,1.62-0.419
		c1.035,0,1.914,0.405,2.635,1.217s1.083,1.942,1.083,3.391c0,1.489-0.364,2.646-1.091,3.471c-0.728,0.825-1.609,1.238-2.644,1.238
		c-0.492,0-0.938-0.099-1.339-0.294c-0.4-0.195-0.821-0.531-1.263-1.008v4.49h-2.358V487.849z M137.569,492.154
		c0,1.002,0.199,1.742,0.596,2.221c0.397,0.478,0.881,0.717,1.452,0.717c0.548,0,1.004-0.219,1.368-0.658s0.545-1.16,0.545-2.162
		c0-0.934-0.188-1.628-0.562-2.081c-0.375-0.453-0.839-0.68-1.394-0.68c-0.576,0-1.055,0.222-1.435,0.667
		C137.759,490.623,137.569,491.281,137.569,492.154z"/>
	<path fill="#034EA2" d="M147.411,490.568l-2.141-0.387c0.241-0.861,0.655-1.499,1.242-1.913c0.588-0.414,1.46-0.621,2.619-0.621
		c1.052,0,1.835,0.124,2.35,0.373c0.515,0.249,0.877,0.565,1.087,0.948c0.21,0.384,0.315,1.088,0.315,2.111l-0.025,2.753
		c0,0.783,0.038,1.361,0.113,1.733c0.076,0.372,0.217,0.771,0.424,1.195h-2.333c-0.062-0.156-0.137-0.389-0.227-0.696
		c-0.04-0.14-0.067-0.231-0.084-0.276c-0.403,0.391-0.834,0.686-1.292,0.881c-0.459,0.195-0.949,0.294-1.469,0.294
		c-0.918,0-1.641-0.249-2.17-0.747s-0.793-1.127-0.793-1.889c0-0.504,0.12-0.953,0.361-1.348s0.578-0.695,1.011-0.906
		c0.434-0.209,1.059-0.393,1.876-0.549c1.102-0.207,1.866-0.4,2.292-0.58v-0.234c0-0.453-0.112-0.776-0.336-0.97
		c-0.224-0.192-0.646-0.29-1.267-0.29c-0.42,0-0.747,0.083-0.982,0.248C147.747,489.864,147.556,490.154,147.411,490.568z
		 M150.567,492.481c-0.302,0.101-0.781,0.222-1.436,0.361c-0.654,0.14-1.083,0.276-1.284,0.411
		c-0.308,0.219-0.461,0.495-0.461,0.831c0,0.33,0.123,0.615,0.369,0.856c0.246,0.24,0.56,0.36,0.94,0.36
		c0.425,0,0.831-0.14,1.217-0.419c0.285-0.213,0.473-0.474,0.563-0.781c0.062-0.201,0.092-0.584,0.092-1.15V492.481z"/>
	<path fill="#034EA2" d="M154.223,494.219l2.367-0.36c0.101,0.458,0.305,0.808,0.613,1.045s0.739,0.356,1.292,0.356
		c0.61,0,1.069-0.111,1.376-0.336c0.207-0.156,0.311-0.366,0.311-0.629c0-0.18-0.056-0.328-0.167-0.445
		c-0.118-0.111-0.381-0.215-0.789-0.311c-1.902-0.42-3.108-0.803-3.618-1.15c-0.705-0.48-1.058-1.149-1.058-2.006
		c0-0.771,0.305-1.42,0.915-1.947c0.61-0.525,1.556-0.788,2.837-0.788c1.22,0,2.126,0.198,2.719,0.596
		c0.593,0.397,1.002,0.985,1.226,1.763l-2.224,0.411c-0.095-0.347-0.276-0.612-0.542-0.798c-0.266-0.184-0.645-0.276-1.137-0.276
		c-0.621,0-1.066,0.087-1.334,0.261c-0.179,0.123-0.269,0.281-0.269,0.478c0,0.168,0.078,0.311,0.235,0.429
		c0.213,0.156,0.947,0.377,2.203,0.662c1.256,0.285,2.133,0.636,2.631,1.05c0.492,0.419,0.739,1.005,0.739,1.754
		c0,0.817-0.341,1.519-1.024,2.106c-0.683,0.588-1.693,0.882-3.03,0.882c-1.214,0-2.175-0.247-2.883-0.739
		C154.904,495.732,154.441,495.064,154.223,494.219z"/>
	<path fill="#034EA2" d="M168.467,492.759l2.417-0.235c0.146,0.812,0.441,1.408,0.886,1.788s1.045,0.571,1.8,0.571
		c0.8,0,1.403-0.17,1.809-0.508c0.406-0.34,0.609-0.734,0.609-1.188c0-0.29-0.085-0.538-0.256-0.743
		c-0.17-0.203-0.469-0.381-0.894-0.532c-0.291-0.101-0.954-0.28-1.989-0.537c-1.332-0.33-2.266-0.735-2.803-1.218
		c-0.755-0.676-1.133-1.502-1.133-2.476c0-0.626,0.178-1.213,0.533-1.759c0.355-0.545,0.867-0.961,1.536-1.246
		s1.476-0.428,2.421-0.428c1.544,0,2.707,0.338,3.487,1.016c0.781,0.677,1.19,1.58,1.23,2.711l-2.484,0.109
		c-0.106-0.633-0.334-1.088-0.684-1.364c-0.35-0.276-0.875-0.415-1.574-0.415c-0.722,0-1.287,0.148-1.696,0.444
		c-0.263,0.19-0.394,0.444-0.394,0.764c0,0.291,0.123,0.54,0.369,0.747c0.313,0.264,1.074,0.537,2.283,0.822
		c1.209,0.285,2.103,0.581,2.682,0.886c0.579,0.306,1.033,0.722,1.36,1.251c0.327,0.528,0.491,1.182,0.491,1.959
		c0,0.705-0.196,1.365-0.588,1.981s-0.945,1.073-1.662,1.372s-1.609,0.449-2.678,0.449c-1.555,0-2.75-0.359-3.583-1.078
		C169.127,495.184,168.629,494.135,168.467,492.759z"/>
	<path fill="#034EA2" d="M182.153,490.568l-2.141-0.387c0.241-0.861,0.655-1.499,1.242-1.913c0.588-0.414,1.46-0.621,2.619-0.621
		c1.052,0,1.835,0.124,2.35,0.373c0.515,0.249,0.877,0.565,1.087,0.948c0.21,0.384,0.315,1.088,0.315,2.111l-0.025,2.753
		c0,0.783,0.038,1.361,0.113,1.733c0.076,0.372,0.217,0.771,0.424,1.195h-2.333c-0.062-0.156-0.137-0.389-0.227-0.696
		c-0.04-0.14-0.067-0.231-0.084-0.276c-0.403,0.391-0.834,0.686-1.292,0.881c-0.459,0.195-0.949,0.294-1.469,0.294
		c-0.918,0-1.641-0.249-2.17-0.747s-0.793-1.127-0.793-1.889c0-0.504,0.12-0.953,0.361-1.348s0.578-0.695,1.011-0.906
		c0.434-0.209,1.059-0.393,1.876-0.549c1.102-0.207,1.866-0.4,2.292-0.58v-0.234c0-0.453-0.112-0.776-0.336-0.97
		c-0.224-0.192-0.646-0.29-1.267-0.29c-0.42,0-0.747,0.083-0.982,0.248C182.488,489.864,182.298,490.154,182.153,490.568z
		 M185.309,492.481c-0.302,0.101-0.781,0.222-1.436,0.361c-0.654,0.14-1.083,0.276-1.284,0.411
		c-0.308,0.219-0.461,0.495-0.461,0.831c0,0.33,0.123,0.615,0.369,0.856c0.246,0.24,0.56,0.36,0.94,0.36
		c0.425,0,0.831-0.14,1.217-0.419c0.285-0.213,0.473-0.474,0.563-0.781c0.062-0.201,0.092-0.584,0.092-1.15V492.481z"/>
	<path fill="#034EA2" d="M192.246,496.762l-3.592-8.913h2.476l1.679,4.55l0.487,1.519c0.128-0.386,0.209-0.641,0.243-0.764
		c0.079-0.252,0.162-0.504,0.252-0.755l1.695-4.55h2.426l-3.542,8.913H192.246z"/>
	<path fill="#034EA2" d="M199.2,486.641v-2.183h2.358v2.183H199.2z M199.2,496.762v-8.913h2.358v8.913H199.2z"/>
	<path fill="#034EA2" d="M208.983,493.926l2.35,0.395c-0.302,0.861-0.779,1.518-1.431,1.968s-1.467,0.676-2.446,0.676
		c-1.55,0-2.697-0.507-3.441-1.52c-0.587-0.812-0.881-1.835-0.881-3.071c0-1.478,0.386-2.635,1.158-3.471
		c0.772-0.837,1.749-1.255,2.929-1.255c1.326,0,2.373,0.438,3.139,1.313c0.767,0.875,1.133,2.217,1.1,4.024h-5.909
		c0.017,0.699,0.207,1.243,0.571,1.632c0.363,0.39,0.817,0.584,1.359,0.584c0.37,0,0.68-0.101,0.932-0.303
		C208.664,494.697,208.854,494.373,208.983,493.926z M209.117,491.541c-0.017-0.682-0.193-1.201-0.529-1.557
		c-0.335-0.355-0.744-0.533-1.225-0.533c-0.515,0-0.94,0.188-1.276,0.563c-0.336,0.375-0.501,0.885-0.495,1.527H209.117z"/>
	<path fill="#034EA2" d="M221.334,496.762h-2.359v-4.549c0-0.962-0.05-1.584-0.151-1.867s-0.264-0.502-0.491-0.659
		c-0.227-0.156-0.499-0.235-0.818-0.235c-0.409,0-0.775,0.113-1.1,0.336c-0.325,0.225-0.547,0.521-0.667,0.891
		c-0.12,0.369-0.18,1.051-0.18,2.047v4.037h-2.359v-8.913h2.191v1.31c0.778-1.008,1.757-1.511,2.938-1.511
		c0.521,0,0.996,0.094,1.427,0.28c0.431,0.188,0.757,0.428,0.978,0.719c0.221,0.291,0.375,0.621,0.461,0.99s0.13,0.898,0.13,1.586
		V496.762z"/>
	<path fill="#034EA2" d="M222.019,486.38v-1.553h5.405v1.553H222.019z M223.572,496.762v-8.913h2.358v8.913H223.572z"/>
	<path fill="#034EA2" d="M228.092,496.762v-12.304h2.358v4.432c0.727-0.828,1.589-1.242,2.585-1.242
		c1.085,0,1.983,0.394,2.694,1.179c0.71,0.787,1.066,1.916,1.066,3.387c0,1.522-0.362,2.694-1.087,3.518
		c-0.725,0.822-1.604,1.233-2.64,1.233c-0.509,0-1.012-0.128-1.507-0.382c-0.495-0.255-0.922-0.631-1.28-1.129v1.309H228.092z
		 M230.434,492.112c0,0.923,0.146,1.606,0.437,2.048c0.409,0.627,0.951,0.94,1.628,0.94c0.521,0,0.964-0.223,1.33-0.667
		c0.367-0.445,0.55-1.146,0.55-2.104c0-1.018-0.185-1.752-0.554-2.203c-0.37-0.449-0.842-0.676-1.418-0.676
		c-0.565,0-1.035,0.221-1.41,0.66C230.621,490.55,230.434,491.217,230.434,492.112z"/>
	<path fill="#034EA2" d="M240.3,490.568l-2.141-0.387c0.241-0.861,0.655-1.499,1.242-1.913c0.588-0.414,1.46-0.621,2.619-0.621
		c1.052,0,1.835,0.124,2.35,0.373c0.515,0.249,0.877,0.565,1.087,0.948c0.21,0.384,0.315,1.088,0.315,2.111l-0.025,2.753
		c0,0.783,0.038,1.361,0.113,1.733c0.076,0.372,0.217,0.771,0.424,1.195h-2.333c-0.062-0.156-0.137-0.389-0.227-0.696
		c-0.04-0.14-0.067-0.231-0.084-0.276c-0.403,0.391-0.834,0.686-1.292,0.881c-0.459,0.195-0.949,0.294-1.469,0.294
		c-0.918,0-1.641-0.249-2.17-0.747s-0.793-1.127-0.793-1.889c0-0.504,0.12-0.953,0.361-1.348s0.578-0.695,1.011-0.906
		c0.434-0.209,1.059-0.393,1.876-0.549c1.102-0.207,1.866-0.4,2.292-0.58v-0.234c0-0.453-0.112-0.776-0.336-0.97
		c-0.224-0.192-0.646-0.29-1.267-0.29c-0.42,0-0.747,0.083-0.982,0.248C240.636,489.864,240.445,490.154,240.3,490.568z
		 M243.456,492.481c-0.302,0.101-0.781,0.222-1.436,0.361c-0.654,0.14-1.083,0.276-1.284,0.411
		c-0.308,0.219-0.461,0.495-0.461,0.831c0,0.33,0.123,0.615,0.369,0.856c0.246,0.24,0.56,0.36,0.94,0.36
		c0.425,0,0.831-0.14,1.217-0.419c0.285-0.213,0.473-0.474,0.563-0.781c0.062-0.201,0.092-0.584,0.092-1.15V492.481z"/>
	<path d="M100.724,507.506v9.684h-0.856v-11.937l-0.034-0.001l8.511,9.804v-9.794h0.797l0.025,11.92L100.724,507.506z"/>
	<path d="M120.78,512.705h-8.2c0,0.648,0.089,1.213,0.269,1.693c0.179,0.479,0.448,0.904,0.806,1.272
		c0.705,0.72,1.564,1.081,2.577,1.081c0.486,0,0.962-0.086,1.427-0.256c0.464-0.17,0.859-0.396,1.183-0.682
		c0.134-0.122,0.283-0.283,0.445-0.484c0.185-0.229,0.35-0.46,0.496-0.693l0.638,0.334c-0.146,0.263-0.301,0.502-0.466,0.72
		s-0.34,0.407-0.524,0.569c-0.397,0.362-0.849,0.645-1.355,0.845c-0.507,0.201-1.087,0.302-1.742,0.302
		c-1.416,0-2.526-0.466-3.332-1.396c-0.806-0.931-1.209-1.986-1.209-3.166c0-1.111,0.341-2.102,1.024-2.968
		c0.862-1.096,2.012-1.644,3.45-1.644c1.483,0,2.669,0.563,3.559,1.688c0.308,0.385,0.544,0.809,0.709,1.271
		C120.697,511.652,120.78,512.157,120.78,512.705z M119.974,512.109c-0.112-0.459-0.228-0.826-0.348-1.104
		c-0.121-0.277-0.27-0.524-0.449-0.742c-0.33-0.397-0.754-0.718-1.271-0.961c-0.518-0.244-1.059-0.365-1.624-0.365
		c-0.94,0-1.757,0.305-2.451,0.914c-0.246,0.219-0.467,0.513-0.663,0.882s-0.375,0.828-0.537,1.376H119.974z"/>
	<path d="M129.628,517.189l-0.904-0.002l-2.909-3.98l-2.858,3.98l-0.88,0.001l3.307-4.575l-2.981-4.138l0.891-0.001l2.529,3.529
		l2.522-3.528h0.89l-2.96,4.136L129.628,517.189z"/>
	<path d="M134.991,509.063h-1.863v8.125h-0.764v-8.125h-1.603v-0.587h1.603v-3.399h0.764v3.399h1.863V509.063z"/>
	<path d="M149.423,511.682c0,0.861-0.139,1.641-0.416,2.338c-0.277,0.696-0.687,1.313-1.229,1.851
		c-1.074,1.08-2.523,1.62-4.348,1.62c-2.222,0-3.976-0.753-5.263-2.258c-0.99-1.158-1.485-2.498-1.485-4.021
		c0-1.119,0.285-2.171,0.856-3.155c0.554-0.963,1.332-1.723,2.333-2.279c1.001-0.557,2.126-0.836,3.374-0.836
		c1.029,0,1.986,0.186,2.871,0.555c0.833,0.336,1.662,0.875,2.484,1.619l-0.655,0.621c-0.671-0.626-1.399-1.107-2.182-1.443
		c-0.845-0.363-1.67-0.545-2.476-0.545c-1.002,0-1.955,0.243-2.858,0.73c-0.904,0.486-1.609,1.152-2.115,1.997
		s-0.759,1.749-0.759,2.711c0,0.974,0.257,1.893,0.772,2.757c0.515,0.865,1.231,1.547,2.148,2.044
		c0.918,0.498,1.914,0.747,2.988,0.747c1.32,0,2.439-0.375,3.357-1.125c0.47-0.386,0.839-0.829,1.108-1.33
		c0.269-0.5,0.456-1.109,0.563-1.825h-3.97v-0.772H149.423z"/>
	<path d="M160.398,512.705h-8.2c0,0.648,0.089,1.213,0.269,1.693c0.179,0.479,0.448,0.904,0.806,1.272
		c0.705,0.72,1.564,1.081,2.577,1.081c0.486,0,0.962-0.086,1.427-0.256c0.464-0.17,0.859-0.396,1.183-0.682
		c0.134-0.122,0.283-0.283,0.445-0.484c0.185-0.229,0.35-0.46,0.496-0.693l0.638,0.334c-0.146,0.263-0.301,0.502-0.466,0.72
		s-0.34,0.407-0.524,0.569c-0.397,0.362-0.849,0.645-1.355,0.845c-0.507,0.201-1.087,0.302-1.742,0.302
		c-1.416,0-2.526-0.466-3.332-1.396c-0.806-0.931-1.209-1.986-1.209-3.166c0-1.111,0.341-2.102,1.024-2.968
		c0.862-1.096,2.012-1.644,3.45-1.644c1.483,0,2.669,0.563,3.559,1.688c0.308,0.385,0.544,0.809,0.709,1.271
		C160.315,511.652,160.398,512.157,160.398,512.705z M159.592,512.109c-0.112-0.459-0.228-0.826-0.348-1.104
		c-0.121-0.277-0.27-0.524-0.449-0.742c-0.33-0.397-0.754-0.718-1.271-0.961c-0.518-0.244-1.059-0.365-1.624-0.365
		c-0.94,0-1.757,0.305-2.451,0.914c-0.246,0.219-0.467,0.513-0.663,0.882s-0.375,0.828-0.537,1.376H159.592z"/>
	<path d="M170.407,517.188h-0.747v-4.15c0-1.059-0.048-1.778-0.143-2.159c-0.14-0.649-0.424-1.143-0.852-1.479
		c-0.428-0.336-0.978-0.504-1.649-0.504c-0.75,0-1.426,0.251-2.027,0.752c-0.602,0.501-1,1.122-1.196,1.86
		c-0.117,0.465-0.176,1.311-0.176,2.537v3.143h-0.755v-8.721h0.755v2.049c0.409-0.537,0.755-0.943,1.041-1.217
		c0.263-0.252,0.54-0.459,0.831-0.621c0.543-0.297,1.13-0.445,1.763-0.445c0.638,0,1.202,0.16,1.691,0.479
		c0.489,0.319,0.856,0.76,1.1,1.323c0.243,0.563,0.365,1.449,0.365,2.659V517.188z"/>
	<path d="M181.743,512.705h-8.2c0,0.648,0.089,1.213,0.269,1.693c0.179,0.479,0.448,0.904,0.806,1.272
		c0.705,0.72,1.564,1.081,2.577,1.081c0.486,0,0.962-0.086,1.427-0.256c0.464-0.17,0.859-0.396,1.183-0.682
		c0.134-0.122,0.283-0.283,0.445-0.484c0.185-0.229,0.35-0.46,0.496-0.693l0.638,0.334c-0.146,0.263-0.301,0.502-0.466,0.72
		s-0.34,0.407-0.524,0.569c-0.397,0.362-0.849,0.645-1.355,0.845c-0.507,0.201-1.087,0.302-1.742,0.302
		c-1.416,0-2.526-0.466-3.332-1.396c-0.806-0.931-1.209-1.986-1.209-3.166c0-1.111,0.341-2.102,1.024-2.968
		c0.862-1.096,2.012-1.644,3.45-1.644c1.483,0,2.669,0.563,3.559,1.688c0.308,0.385,0.544,0.809,0.709,1.271
		C181.66,511.652,181.743,512.157,181.743,512.705z M180.937,512.109c-0.112-0.459-0.228-0.826-0.348-1.104
		c-0.121-0.277-0.27-0.524-0.449-0.742c-0.33-0.397-0.754-0.718-1.271-0.961c-0.518-0.244-1.059-0.365-1.624-0.365
		c-0.94,0-1.757,0.305-2.451,0.914c-0.246,0.219-0.467,0.513-0.663,0.882s-0.375,0.828-0.537,1.376H180.937z"/>
	<path d="M187.875,508.417l-0.403,0.654c-0.207-0.078-0.386-0.117-0.537-0.117c-0.437,0-0.862,0.179-1.276,0.538
		c-0.386,0.342-0.683,0.873-0.89,1.596c-0.073,0.275-0.129,0.678-0.168,1.21s-0.059,1.202-0.059,2.009v2.881h-0.781v-8.721h0.781
		v1.813c0.347-0.515,0.632-0.898,0.856-1.149c0.196-0.225,0.392-0.399,0.587-0.525c0.196-0.125,0.385-0.219,0.567-0.281
		c0.182-0.061,0.374-0.092,0.575-0.092C187.362,508.232,187.611,508.294,187.875,508.417z"/>
	<path d="M197.901,517.18h-0.739v-1.939c-0.403,0.49-0.761,0.869-1.074,1.137c-0.28,0.246-0.576,0.447-0.89,0.603
		c-0.582,0.284-1.22,0.427-1.914,0.427c-1.231,0-2.285-0.453-3.16-1.359c-0.875-0.904-1.313-1.99-1.313-3.253
		c0-1.247,0.442-2.318,1.326-3.216c0.884-0.897,1.944-1.346,3.181-1.346c0.705,0,1.348,0.15,1.93,0.453
		c0.313,0.162,0.605,0.377,0.877,0.643s0.617,0.681,1.037,1.246v-2.107h0.739V517.18z M197.238,512.869
		c0-1.111-0.368-2.044-1.104-2.796c-0.736-0.751-1.644-1.128-2.724-1.128c-0.7,0-1.339,0.17-1.918,0.508s-1.043,0.817-1.393,1.438
		c-0.35,0.621-0.525,1.27-0.525,1.945s0.172,1.323,0.516,1.941c0.344,0.617,0.814,1.101,1.41,1.45
		c0.596,0.349,1.229,0.524,1.901,0.524c0.672,0,1.315-0.172,1.931-0.512c0.291-0.162,0.557-0.363,0.797-0.604
		s0.445-0.506,0.613-0.797C197.073,514.258,197.238,513.602,197.238,512.869z"/>
	<path d="M204.461,509.063h-1.863v8.125h-0.764v-8.125h-1.603v-0.587h1.603v-3.399h0.764v3.399h1.863V509.063z"/>
	<path d="M207.445,505.479c0,0.197-0.074,0.37-0.223,0.521c-0.148,0.15-0.331,0.227-0.549,0.227c-0.196,0-0.37-0.074-0.521-0.223
		c-0.151-0.148-0.227-0.328-0.227-0.541c0-0.201,0.074-0.378,0.222-0.529c0.148-0.15,0.329-0.227,0.542-0.227
		c0.202,0,0.377,0.074,0.529,0.223C207.369,505.078,207.445,505.262,207.445,505.479z M207.067,517.188h-0.764v-8.721h0.764V517.188
		z"/>
	<path d="M218.419,512.844c0,1.219-0.425,2.284-1.275,3.195c-0.851,0.911-1.939,1.367-3.265,1.367c-1.337,0-2.43-0.457-3.277-1.371
		c-0.848-0.914-1.272-1.979-1.272-3.191c0-1.195,0.403-2.244,1.209-3.145c0.878-0.979,1.992-1.467,3.34-1.467
		c1.337,0,2.451,0.486,3.34,1.459C218.02,510.574,218.419,511.625,218.419,512.844z M217.647,512.869
		c0-1.09-0.369-2.014-1.108-2.771s-1.625-1.136-2.661-1.136c-1.03,0-1.915,0.38-2.656,1.14c-0.742,0.761-1.112,1.683-1.112,2.767
		c0,0.682,0.168,1.33,0.503,1.945c0.163,0.291,0.361,0.557,0.596,0.797c0.235,0.24,0.492,0.444,0.772,0.611
		c0.571,0.324,1.203,0.486,1.897,0.486s1.326-0.166,1.897-0.498c0.571-0.333,1.025-0.8,1.364-1.4
		C217.478,514.209,217.647,513.563,217.647,512.869z"/>
	<path d="M228.412,517.188h-0.747v-4.15c0-1.059-0.048-1.778-0.143-2.159c-0.14-0.649-0.424-1.143-0.852-1.479
		c-0.428-0.336-0.978-0.504-1.649-0.504c-0.75,0-1.426,0.251-2.027,0.752c-0.602,0.501-1,1.122-1.196,1.86
		c-0.117,0.465-0.176,1.311-0.176,2.537v3.143h-0.755v-8.721h0.755v2.049c0.409-0.537,0.755-0.943,1.041-1.217
		c0.263-0.252,0.54-0.459,0.831-0.621c0.543-0.297,1.13-0.445,1.763-0.445c0.638,0,1.202,0.16,1.691,0.479
		c0.489,0.319,0.856,0.76,1.1,1.323c0.243,0.563,0.365,1.449,0.365,2.659V517.188z"/>
	<path d="M238.052,506.059h-5.842v4.271h5.792v0.789h-5.792v5.271h5.792v0.797h-6.605v-11.926h6.656V506.059z"/>
	<path d="M248.246,512.5c0,0.542-0.025,1.027-0.075,1.455s-0.132,0.812-0.244,1.152c-0.196,0.633-0.597,1.188-1.204,1.666
		c-0.607,0.478-1.35,0.717-2.229,0.717c-0.951,0-1.761-0.225-2.43-0.672c-0.669-0.447-1.121-1.043-1.356-1.786
		c-0.146-0.441-0.218-1.286-0.218-2.532v-7.238h0.814v7.237c0,0.884,0.017,1.442,0.05,1.677c0.067,0.521,0.22,0.955,0.458,1.305
		s0.611,0.65,1.121,0.902c0.251,0.117,0.5,0.205,0.747,0.264c0.247,0.059,0.496,0.088,0.747,0.088c0.425,0,0.845-0.092,1.259-0.276
		c0.207-0.095,0.393-0.206,0.558-0.331c0.165-0.127,0.317-0.275,0.458-0.449c0.274-0.336,0.473-0.735,0.596-1.199
		c0.045-0.174,0.078-0.415,0.101-0.726c0.022-0.31,0.034-0.728,0.034-1.254v-7.237h0.814V512.5z"/>
	<g>
		<rect x="70.673" y="313.392" fill="#FFFFFF" width="211.245" height="143.49"/>
		<rect x="74.735" y="317.326" fill="#034EA2" width="203.121" height="135.415"/>
		<polygon fill="#FFF100" points="171.967,346.831 176.252,343.703 180.539,346.831 178.907,341.772 183.261,338.644 
			177.895,338.644 176.252,333.524 174.61,338.649 169.248,338.644 173.598,341.772 		"/>
		<polygon fill="#FFF100" points="149.787,352.789 154.073,349.662 158.355,352.789 156.728,347.731 161.079,344.603 
			155.712,344.603 154.07,339.478 152.428,344.608 147.064,344.603 151.415,347.731 		"/>
		<polygon fill="#FFF100" points="137.844,355.743 136.2,360.875 130.837,360.869 135.188,363.997 133.557,369.056 137.844,365.928 
			142.129,369.056 140.498,363.997 144.848,360.869 139.485,360.869 		"/>
		<polygon fill="#FFF100" points="131.89,388.081 136.172,391.208 134.544,386.149 138.895,383.022 133.532,383.022 131.89,377.896 
			130.247,383.032 124.881,383.022 129.235,386.149 127.604,391.208 		"/>
		<polygon fill="#FFF100" points="139.485,405.241 137.843,400.116 136.2,405.247 130.837,405.241 135.188,408.369 133.557,413.427 
			137.843,410.294 142.129,413.427 140.498,408.369 144.848,405.241 		"/>
		<polygon fill="#FFF100" points="155.746,421.501 154.104,416.382 152.464,421.507 147.098,421.501 151.449,424.63 149.82,429.688 
			154.106,426.56 158.389,429.688 156.762,424.63 161.112,421.501 		"/>
		<polygon fill="#FFF100" points="177.898,427.394 176.256,422.269 174.616,427.399 169.25,427.394 173.601,430.521 171.973,435.58 
			176.259,432.451 180.541,435.58 178.911,430.521 183.264,427.394 		"/>
		<polygon fill="#FFF100" points="200.051,421.501 198.411,416.382 196.767,421.507 191.405,421.501 195.753,424.63 
			194.125,429.688 198.411,426.56 202.697,429.688 201.064,424.63 205.417,421.501 		"/>
		<polygon fill="#FFF100" points="216.317,405.241 214.671,400.116 213.026,405.247 207.666,405.241 212.02,408.369 
			210.386,413.427 214.671,410.294 218.957,413.427 217.323,408.369 221.676,405.241 		"/>
		<polygon fill="#FFF100" points="227.569,382.96 222.203,382.96 220.558,377.835 218.918,382.966 213.553,382.96 217.906,386.088 
			216.277,391.147 220.558,388.013 224.843,391.147 223.216,386.088 		"/>
		<polygon fill="#FFF100" points="210.386,368.988 214.671,365.86 218.958,368.988 217.324,363.929 221.677,360.808 
			216.317,360.808 214.671,355.683 213.027,360.813 207.666,360.808 212.02,363.929 		"/>
		<polygon fill="#FFF100" points="198.473,339.483 196.833,344.614 191.467,344.603 195.815,347.737 194.187,352.795 
			198.479,349.662 202.758,352.795 201.13,347.737 205.484,344.603 200.112,344.603 		"/>
	</g>
</g>
</svg>
