<svg xmlns="http://www.w3.org/2000/svg" xmlns:xlink="http://www.w3.org/1999/xlink" xmlns:inkscape="http://www.inkscape.org/namespaces/inkscape" version="1.1" width="394" height="178" viewBox="0 0 394 178">
<defs>
<clipPath id="clip_0">
<path transform="matrix(1,0,0,-1,0,178)" d="M0 0H394V178H0Z"/>
</clipPath>
</defs>
<g inkscape:groupmode="layer" inkscape:label="Layer 1">
<path transform="matrix(1,0,0,-1,237.5742,112.5327)" d="M0 0-3.675 15.792H-1.448L1.42 2.638H1.559L4.428 15.792H6.607L2.936 0Z" fill="#c2c1c1"/>
<g clip-path="url(#clip_0)">
<path transform="matrix(1,0,0,-1,249.3672,110.8345)" d="M0 0C.279 .107 .491 .329 .646 .666 .873 1.202 .987 1.951 .987 2.915V3.626H-1.213C-1.644 3.626-1.961 3.582-2.168 3.489-2.374 3.396-2.515 3.222-2.592 2.961-2.668 2.701-2.707 2.288-2.707 1.721-2.707 1.186-2.665 .788-2.582 .529-2.496 .268-2.338 .088-2.108-.012-1.88-.11-1.527-.16-1.054-.16-.625-.16-.273-.107 0 0M-4.047-1.113C-4.5-.601-4.727 .29-4.727 1.561-4.727 2.448-4.639 3.141-4.463 3.638-4.286 4.135-3.987 4.494-3.566 4.716-3.146 4.937-2.554 5.049-1.788 5.049-1.1 5.049-.175 5.018 .987 4.958V5.692C.987 6.58 .928 7.211 .806 7.586 .682 7.961 .464 8.202 .152 8.31-.163 8.415-.693 8.469-1.443 8.469-2.086 8.469-2.999 8.401-4.176 8.265V9.847C-3.149 10.077-2.048 10.191-.869 10.191 .231 10.191 1.06 10.053 1.608 9.778 2.158 9.504 2.534 9.047 2.732 8.412 2.932 7.777 3.031 6.856 3.031 5.646V-1.698H1.172L1.08-.16H.943C.713-.849 .354-1.308-.137-1.538-.625-1.767-1.191-1.883-1.834-1.883-2.859-1.883-3.598-1.625-4.047-1.113" fill="#c2c1c1"/>
<path transform="matrix(1,0,0,-1,0,178)" d="M254.993 82.521H257.035V65.467H254.993Z" fill="#c2c1c1"/>
<path transform="matrix(1,0,0,-1,260.959,112.6245)" d="M0 0C-.611 .062-1.132 .13-1.561 .207V1.812C-.641 1.676 .329 1.607 1.354 1.607 1.891 1.607 2.298 1.667 2.571 1.791 2.847 1.911 3.027 2.092 3.11 2.33 3.194 2.567 3.236 2.9 3.236 3.329 3.236 3.834 3.211 4.197 3.156 4.418 3.102 4.64 3.009 4.786 2.87 4.854 2.733 4.924 2.494 4.981 2.158 5.027L-.046 5.348C-.718 5.455-1.186 5.742-1.444 6.208-1.706 6.675-1.835 7.452-1.835 8.538-1.835 9.871-1.524 10.776-.905 11.258-.286 11.741 .635 11.981 1.86 11.981 2.363 11.981 2.889 11.951 3.433 11.889 3.976 11.828 4.408 11.752 4.729 11.659V10.054C3.965 10.206 3.068 10.283 2.042 10.283 1.354 10.283 .873 10.172 .598 9.95 .322 9.727 .186 9.281 .186 8.607 .186 8.148 .211 7.815 .267 7.608 .318 7.401 .41 7.259 .541 7.184 .67 7.107 .889 7.047 1.195 7L3.215 6.726C3.689 6.665 4.066 6.538 4.351 6.347 4.632 6.155 4.852 5.834 5.004 5.382 5.157 4.931 5.235 4.276 5.235 3.42 5.235 2.09 4.951 1.171 4.384 .665 3.817 .161 2.915-.092 1.677-.092 1.172-.092 .614-.061 0 0" fill="#c2c1c1"/>
<path transform="matrix(1,0,0,-1,268.9014,112.5327)" d="M0 0V9.983H-1.604V11.706H0V15.103H2.067V11.706H3.994V9.983H2.067V0Z" fill="#c2c1c1"/>
<path transform="matrix(1,0,0,-1,275.9707,112.6245)" d="M0 0C-.612 .062-1.132 .13-1.561 .207V1.812C-.643 1.676 .328 1.607 1.354 1.607 1.889 1.607 2.296 1.667 2.571 1.791 2.846 1.911 3.026 2.092 3.109 2.33 3.192 2.567 3.237 2.9 3.237 3.329 3.237 3.834 3.21 4.197 3.157 4.418 3.102 4.64 3.006 4.786 2.87 4.854 2.732 4.924 2.493 4.981 2.158 5.027L-.045 5.348C-.719 5.455-1.186 5.742-1.445 6.208-1.706 6.675-1.837 7.452-1.837 8.538-1.837 9.871-1.524 10.776-.905 11.258-.285 11.741 .636 11.981 1.859 11.981 2.365 11.981 2.889 11.951 3.431 11.889 3.975 11.828 4.408 11.752 4.727 11.659V10.054C3.963 10.206 3.067 10.283 2.043 10.283 1.354 10.283 .872 10.172 .596 9.95 .321 9.727 .185 9.281 .185 8.607 .185 8.148 .21 7.815 .266 7.608 .316 7.401 .409 7.259 .54 7.184 .67 7.107 .889 7.047 1.193 7L3.214 6.726C3.688 6.665 4.068 6.538 4.351 6.347 4.633 6.155 4.852 5.834 5.005 5.382 5.157 4.931 5.232 4.276 5.232 3.42 5.232 2.09 4.951 1.171 4.385 .665 3.817 .161 2.914-.092 1.676-.092 1.17-.092 .612-.061 0 0" fill="#c2c1c1"/>
<path transform="matrix(1,0,0,-1,292.9893,110.6387)" d="M0 0C.253 .175 .426 .542 .516 1.102 .609 1.66 .654 2.611 .654 3.959 .654 5.305 .609 6.254 .516 6.805 .426 7.354 .253 7.719 0 7.895-.252 8.071-.692 8.158-1.318 8.158-1.825 8.158-2.215 8.06-2.489 7.86-2.767 7.662-2.958 7.317-3.065 6.828-3.141 6.507-3.187 6.143-3.202 5.737-3.219 5.333-3.226 4.739-3.226 3.959-3.226 2.688-3.187 1.815-3.11 1.342-3.004 .744-2.811 .329-2.537 .091-2.263-.146-1.857-.263-1.318-.263-.692-.263-.252-.176 0 0M-5.268 9.812H-3.432L-3.339 8.25H-3.202C-2.989 8.923-2.647 9.383-2.181 9.628-1.714 9.872-1.159 9.995-.517 9.995 .341 9.995 .994 9.828 1.446 9.49 1.897 9.154 2.218 8.561 2.408 7.711 2.601 6.862 2.697 5.619 2.697 3.983 2.697 2.359 2.605 1.121 2.424 .265 2.238-.593 1.918-1.198 1.468-1.551 1.018-1.901 .364-2.079-.493-2.079-1.166-2.079-1.717-1.958-2.146-1.721-2.574-1.484-2.896-1.083-3.11-.517H-3.226V-6.3H-5.268Z" fill="#c2c1c1"/>
<path transform="matrix(1,0,0,-1,300.3564,102.5703)" d="M0 0C-.269-.168-.444-.491-.528-.964-.611-1.439-.663-2.228-.677-3.329H3.157V-3.145C3.157-2.105 3.106-1.352 3.006-.885 2.907-.418 2.735-.113 2.49 .034 2.245 .178 1.856 .252 1.319 .252 .708 .252 .267 .167 0 0M-1.092 7.091H3.499V5.254H-1.092ZM5.106-4.752H-.677C-.677-5.885-.623-6.691-.517-7.173-.409-7.655-.185-7.985 .16-8.161 .505-8.336 1.09-8.424 1.918-8.424 2.758-8.424 3.714-8.348 4.784-8.195V-9.803C4.419-9.893 3.925-9.973 3.306-10.043 2.685-10.111 2.084-10.146 1.504-10.146 .234-10.146-.696-9.962-1.286-9.596-1.874-9.229-2.258-8.643-2.432-7.839-2.608-7.036-2.698-5.801-2.698-4.132-2.698-2.479-2.617-1.252-2.458-.448-2.298 .354-1.934 .951-1.364 1.341-.802 1.731 .11 1.927 1.365 1.927 2.56 1.927 3.416 1.743 3.937 1.377 4.456 1.01 4.781 .436 4.911-.344 5.042-1.125 5.106-2.38 5.106-4.109Z" fill="#c2c1c1"/>
<path transform="matrix(1,0,0,-1,308.5156,112.5327)" d="M0 0V9.983H-1.604V11.706H0V15.103H2.064V11.706H3.992V9.983H2.064V0Z" fill="#c2c1c1"/>
<path transform="matrix(1,0,0,-1,0,178)" d="M314.301 77.173H316.343V65.466999H314.301ZM313.015 82.521H317.604V80.684009H313.015Z" fill="#c2c1c1"/>
<path transform="matrix(1,0,0,-1,0,178)" d="M318.935 82.521H321.047V80.340007H318.935ZM317.466 62.623C317.926 62.623 318.261 62.661 318.476 62.736 318.69 62.813 318.83 62.934 318.891 63.103 318.951 63.271 318.98 63.532 318.98 63.883V77.173H321.025V64.527C321.025 63.456 320.921 62.676 320.713 62.185 320.506 61.695 320.168 61.382 319.692 61.244 319.218 61.106 318.476 61.037 317.466 61.037Z" fill="#c2c1c1"/>
<path transform="matrix(1,0,0,-1,329.4258,110.9727)" d="M0 0H-.139C-.336-.581-.66-1.017-1.102-1.308-1.547-1.599-2.151-1.745-2.917-1.745-3.741-1.745-4.363-1.59-4.774-1.285-5.187-.979-5.466-.52-5.612 .093-5.758 .705-5.831 1.57-5.831 2.687V10.146H-3.788V3.444C-3.788 2.388-3.747 1.635-3.661 1.183-3.578 .731-3.421 .437-3.191 .3-2.961 .161-2.579 .093-2.044 .093-1.431 .093-.992 .231-.723 .505-.458 .781-.287 1.175-.22 1.688-.149 2.201-.117 2.984-.117 4.04V10.146H1.928V-1.56H.091Z" fill="#c2c1c1"/>
<path transform="matrix(1,0,0,-1,345.0312,105.8306)" d="M0 0C0 1.072-.032 1.828-.103 2.272-.172 2.715-.313 3.007-.525 3.145-.741 3.282-1.1 3.35-1.605 3.35-2.188 3.35-2.612 3.217-2.881 2.949-3.146 2.682-3.313 2.296-3.372 1.792-3.434 1.285-3.465 .489-3.465-.597V-6.702H-5.507V0C-5.507 1.056-5.546 1.81-5.622 2.261-5.697 2.712-5.84 3.007-6.048 3.145-6.253 3.282-6.61 3.35-7.113 3.35-7.693 3.35-8.12 3.213-8.389 2.938-8.655 2.663-8.82 2.265-8.882 1.744-8.942 1.224-8.973 .444-8.973-.597V-6.702H-11.018V5.003H-9.18L-9.089 3.443H-8.951C-8.735 4.009-8.423 4.441-8.01 4.741-7.598 5.039-7.015 5.187-6.265 5.187-5.453 5.187-4.854 5.053-4.463 4.786-4.071 4.518-3.801 4.071-3.649 3.443H-3.508C-3.313 4.009-2.996 4.441-2.559 4.741-2.121 5.039-1.528 5.187-.779 5.187 .017 5.187 .612 5.039 1.011 4.741 1.41 4.441 1.679 3.985 1.826 3.375 1.973 2.76 2.043 1.906 2.043 .804V-6.702H0Z" fill="#c2c1c1"/>
<path transform="matrix(1,0,0,-1,355.4512,110.9727)" d="M0 0H-.137C-.336-.581-.656-1.017-1.102-1.308-1.546-1.599-2.149-1.745-2.914-1.745-3.74-1.745-4.36-1.59-4.771-1.285-5.186-.979-5.466-.52-5.61 .093-5.756 .705-5.829 1.57-5.829 2.687V10.146H-3.787V3.444C-3.787 2.388-3.745 1.635-3.66 1.183-3.576 .731-3.418 .437-3.187 .3-2.96 .161-2.577 .093-2.041 .093-1.431 .093-.99 .231-.721 .505-.456 .781-.285 1.175-.218 1.688-.146 2.201-.112 2.984-.112 4.04V10.146H1.928V-1.56H.093Z" fill="#c2c1c1"/>
<path transform="matrix(1,0,0,-1,240.291,131.5049)" d="M0 0C.254 .175 .426 .542 .519 1.103 .609 1.661 .655 2.612 .655 3.959 .655 5.306 .609 6.255 .519 6.806 .426 7.356 .254 7.72 0 7.895-.252 8.071-.692 8.159-1.318 8.159-1.824 8.159-2.214 8.06-2.49 7.861-2.765 7.661-2.955 7.318-3.063 6.828-3.141 6.507-3.188 6.143-3.202 5.738-3.216 5.332-3.224 4.74-3.224 3.959-3.224 2.688-3.188 1.814-3.11 1.343-3.002 .746-2.813 .329-2.537 .092-2.26-.146-1.855-.264-1.318-.264-.692-.264-.252-.175 0 0M-5.266 9.812H-3.432L-3.338 8.251H-3.202C-2.987 8.923-2.646 9.384-2.178 9.63-1.714 9.872-1.159 9.996-.517 9.996 .34 9.996 .996 9.827 1.446 9.49 1.896 9.154 2.22 8.561 2.41 7.711 2.601 6.862 2.698 5.619 2.698 3.982 2.698 2.36 2.604 1.122 2.422 .264 2.238-.593 1.921-1.197 1.471-1.55 1.02-1.901 .362-2.078-.492-2.078-1.166-2.078-1.717-1.959-2.145-1.722-2.572-1.484-2.896-1.084-3.11-.517H-3.224V-6.301H-5.266Z" fill="#c2c1c1"/>
<path transform="matrix(1,0,0,-1,245.3057,121.6929)" d="M0 0H1.837L1.929-2.112H2.065C2.278-1.239 2.624-.639 3.098-.31 3.574 .019 4.21 .184 5.004 .184V-1.882C4.237-1.882 3.643-2.032 3.215-2.331 2.784-2.627 2.483-3.095 2.308-3.73 2.132-4.364 2.044-5.21 2.044-6.267V-11.705H0Z" fill="#c2c1c1"/>
<path transform="matrix(1,0,0,-1,257.0244,131.5737)" d="M0 0C.269 .19 .437 .562 .503 1.112 .572 1.664 .608 2.635 .608 4.028 .608 5.42 .572 6.392 .503 6.942 .437 7.494 .269 7.864 0 8.057-.269 8.247-.729 8.343-1.389 8.343-2.061 8.343-2.528 8.247-2.79 8.057-3.049 7.864-3.214 7.497-3.282 6.954-3.351 6.413-3.385 5.436-3.385 4.028-3.385 2.62-3.351 1.643-3.282 1.101-3.214 .558-3.049 .19-2.79 0-2.528-.191-2.061-.287-1.389-.287-.729-.287-.269-.191 0 0M-4.11-1.515C-4.668-1.186-5.028-.624-5.187 .172-5.349 .968-5.427 2.253-5.427 4.028-5.427 5.802-5.349 7.088-5.187 7.884-5.028 8.68-4.668 9.241-4.11 9.571-3.551 9.9-2.644 10.064-1.389 10.064-.135 10.064 .772 9.9 1.33 9.571 1.889 9.241 2.248 8.68 2.411 7.884 2.57 7.088 2.65 5.802 2.65 4.028 2.65 2.253 2.57 .968 2.411 .172 2.248-.624 1.889-1.186 1.33-1.515 .772-1.843-.135-2.009-1.389-2.009-2.644-2.009-3.551-1.843-4.11-1.515" fill="#c2c1c1"/>
<path transform="matrix(1,0,0,-1,266.7783,131.3789)" d="M0 0C.268 .199 .455 .536 .562 1.011 .701 1.606 .769 2.556 .769 3.856 .769 5.141 .714 6.037 .61 6.541 .503 7.093 .315 7.479 .047 7.701-.22 7.922-.622 8.033-1.157 8.033-1.786 8.033-2.224 7.945-2.479 7.769-2.732 7.594-2.899 7.23-2.983 6.68-3.068 6.129-3.11 5.187-3.11 3.856-3.11 2.541-3.068 1.606-2.983 1.056-2.899 .505-2.729 .142-2.467-.034-2.207-.21-1.772-.299-1.157-.299-.653-.299-.268-.199 0 0M-4.647-6.38V-4.797C-4.325-4.797-3.921-4.811-3.433-4.842L-1.964-4.866C-1.106-4.866-.492-4.767-.124-4.567 .242-4.368 .483-4.017 .597-3.511 .713-3.007 .769-2.173 .769-1.01V-.551H.632C.433-1.118 .119-1.515-.31-1.745-.739-1.975-1.288-2.089-1.964-2.089-2.819-2.089-3.474-1.921-3.925-1.584-4.375-1.248-4.692-.658-4.878 .185-5.06 1.025-5.152 2.25-5.152 3.856-5.152 5.493-5.06 6.736-4.878 7.585-4.692 8.435-4.375 9.028-3.925 9.364-3.474 9.701-2.819 9.87-1.964 9.87-1.319 9.87-.765 9.745-.298 9.504 .169 9.258 .51 8.797 .722 8.125H.859L.953 9.686H2.813V-.39C2.813-2.042 2.721-3.287 2.536-4.12 2.353-4.953 1.95-5.573 1.332-5.979 .713-6.383-.246-6.588-1.548-6.588-2.619-6.588-3.654-6.519-4.647-6.38" fill="#c2c1c1"/>
<path transform="matrix(1,0,0,-1,272.2305,121.6929)" d="M0 0H1.834L1.928-2.112H2.064C2.279-1.239 2.622-.639 3.097-.31 3.572 .019 4.206 .184 5.002 .184V-1.882C4.238-1.882 3.641-2.032 3.211-2.331 2.784-2.627 2.48-3.095 2.306-3.73 2.13-4.364 2.043-5.21 2.043-6.267V-11.705H0Z" fill="#c2c1c1"/>
<path transform="matrix(1,0,0,-1,282.8555,131.7002)" d="M0 0C.276 .107 .491 .329 .642 .666 .873 1.202 .988 1.951 .988 2.916V3.626H-1.215C-1.644 3.626-1.96 3.581-2.167 3.489-2.375 3.396-2.516 3.22-2.594 2.959-2.67 2.701-2.707 2.288-2.707 1.721-2.707 1.186-2.665 .788-2.582 .528-2.496 .268-2.341 .087-2.111-.011-1.879-.111-1.529-.161-1.054-.161-.626-.161-.274-.107 0 0M-4.051-1.114C-4.501-.601-4.727 .29-4.727 1.561-4.727 2.448-4.641 3.141-4.462 3.636-4.285 4.134-3.989 4.493-3.567 4.717-3.146 4.937-2.555 5.049-1.79 5.049-1.1 5.049-.175 5.018 .988 4.957V5.693C.988 6.58 .927 7.211 .807 7.586 .683 7.961 .465 8.201 .149 8.308-.163 8.415-.695 8.47-1.445 8.47-2.087 8.47-2.998 8.401-4.176 8.264V9.848C-3.151 10.076-2.049 10.191-.871 10.191 .23 10.191 1.058 10.054 1.609 9.777 2.157 9.503 2.533 9.048 2.732 8.412 2.932 7.777 3.031 6.856 3.031 5.646V-1.698H1.172L1.081-.161H.942C.713-.849 .352-1.31-.137-1.538-.626-1.767-1.192-1.882-1.835-1.882-2.86-1.882-3.599-1.625-4.051-1.114" fill="#c2c1c1"/>
<path transform="matrix(1,0,0,-1,299.4961,126.6958)" d="M0 0C0 1.07-.033 1.828-.102 2.271-.172 2.714-.314 3.005-.528 3.144-.741 3.282-1.101 3.35-1.605 3.35-2.188 3.35-2.612 3.217-2.882 2.949-3.147 2.682-3.313 2.295-3.374 1.79-3.435 1.285-3.465 .489-3.465-.598V-6.702H-5.509V0C-5.509 1.056-5.548 1.808-5.623 2.26-5.699 2.711-5.841 3.005-6.047 3.144-6.254 3.282-6.61 3.35-7.114 3.35-7.697 3.35-8.12 3.212-8.39 2.937-8.656 2.661-8.822 2.263-8.881 1.743-8.942 1.223-8.973 .443-8.973-.598V-6.702H-11.016V5.003H-9.182L-9.09 3.442H-8.952C-8.736 4.008-8.425 4.441-8.01 4.74-7.598 5.037-7.016 5.187-6.267 5.187-5.456 5.187-4.854 5.052-4.464 4.785-4.073 4.517-3.803 4.07-3.65 3.442H-3.511C-3.313 4.008-2.996 4.441-2.559 4.74-2.123 5.037-1.531 5.187-.779 5.187 .016 5.187 .613 5.037 1.012 4.74 1.408 4.441 1.679 3.986 1.826 3.374 1.971 2.761 2.043 1.905 2.043 .803V-6.702H0Z" fill="#c2c1c1"/>
<path transform="matrix(1,0,0,-1,315.1738,126.6958)" d="M0 0C0 1.07-.033 1.828-.104 2.271-.174 2.714-.314 3.005-.528 3.144-.742 3.282-1.102 3.35-1.607 3.35-2.188 3.35-2.614 3.217-2.882 2.949-3.15 2.682-3.313 2.295-3.375 1.79-3.436 1.285-3.468 .489-3.468-.598V-6.702H-5.51V0C-5.51 1.056-5.548 1.808-5.622 2.26-5.7 2.711-5.843 3.005-6.049 3.144-6.256 3.282-6.61 3.35-7.115 3.35-7.697 3.35-8.121 3.212-8.391 2.937-8.657 2.661-8.822 2.263-8.883 1.743-8.943 1.223-8.974 .443-8.974-.598V-6.702H-11.018V5.003H-9.182L-9.091 3.442H-8.952C-8.739 4.008-8.425 4.441-8.011 4.74-7.598 5.037-7.018 5.187-6.267 5.187-5.455 5.187-4.855 5.052-4.464 4.785-4.073 4.517-3.805 4.07-3.65 3.442H-3.511C-3.313 4.008-2.997 4.441-2.561 4.74-2.123 5.037-1.53 5.187-.78 5.187 .016 5.187 .611 5.037 1.009 4.74 1.406 4.441 1.678 3.986 1.825 3.374 1.971 2.761 2.041 1.905 2.041 .803V-6.702H0Z" fill="#c2c1c1"/>
<path transform="matrix(1,0,0,-1,323.9385,131.7002)" d="M0 0C.276 .107 .493 .329 .646 .666 .875 1.202 .988 1.951 .988 2.916V3.626H-1.216C-1.643 3.626-1.962 3.581-2.165 3.489-2.374 3.396-2.516 3.22-2.591 2.959-2.668 2.701-2.707 2.288-2.707 1.721-2.707 1.186-2.663 .788-2.579 .528-2.496 .268-2.339 .087-2.108-.011-1.88-.111-1.528-.161-1.054-.161-.626-.161-.272-.107 0 0M-4.05-1.114C-4.5-.601-4.727 .29-4.727 1.561-4.727 2.448-4.638 3.141-4.464 3.636-4.287 4.134-3.989 4.493-3.567 4.717-3.146 4.937-2.554 5.049-1.789 5.049-1.099 5.049-.174 5.018 .988 4.957V5.693C.988 6.58 .929 7.211 .807 7.586 .684 7.961 .463 8.201 .153 8.308-.162 8.415-.694 8.47-1.443 8.47-2.086 8.47-2.996 8.401-4.175 8.264V9.848C-3.149 10.076-2.049 10.191-.868 10.191 .231 10.191 1.058 10.054 1.608 9.777 2.161 9.503 2.533 9.048 2.734 8.412 2.932 7.777 3.031 6.856 3.031 5.646V-1.698H1.175L1.079-.161H.942C.713-.849 .354-1.31-.136-1.538-.626-1.767-1.191-1.882-1.833-1.882-2.859-1.882-3.599-1.625-4.05-1.114" fill="#c2c1c1"/>
<path transform="matrix(1,0,0,-1,241.1924,88.2246)" d="M0 0-7.93 41.342H.482L5.89 8.654H6.431L11.658 41.342H19.95L12.021 0Z" fill="#c2c1c1"/>
<path transform="matrix(1,0,0,-1,276.4658,67.7339)" d="M0 0C1.359 0 2.322 .159 2.884 .48 3.444 .8 3.815 1.413 3.995 2.314 4.175 3.215 4.267 4.727 4.267 6.85 4.267 8.973 4.175 10.475 3.995 11.356 3.815 12.237 3.453 12.829 2.914 13.129 2.373 13.43 1.421 13.58 .057 13.58H-3.245V0ZM-11.538 20.852H2.103C5.026 20.852 7.24 20.331 8.741 19.288 10.243 18.247 11.256 16.735 11.776 14.752 12.299 12.768 12.556 10.135 12.556 6.85 12.556 3.687 12.317 1.111 11.836-.871 11.357-2.854 10.354-4.416 8.832-5.558 7.308-6.7 5.047-7.27 2.043-7.27H-3.245V-20.49H-11.538Z" fill="#c2c1c1"/>
<path transform="matrix(1,0,0,-1,305.0078,67.7339)" d="M0 0C1.359 0 2.321 .159 2.882 .48 3.441 .8 3.814 1.413 3.993 2.314 4.174 3.215 4.266 4.727 4.266 6.85 4.266 8.973 4.174 10.475 3.993 11.356 3.814 12.237 3.454 12.829 2.913 13.129 2.371 13.43 1.42 13.58 .056 13.58H-3.247V0ZM-11.539 20.852H2.101C5.024 20.852 7.238 20.331 8.741 19.288 10.241 18.247 11.254 16.735 11.776 14.752 12.297 12.768 12.555 10.135 12.555 6.85 12.555 3.687 12.316 1.111 11.836-.871 11.355-2.854 10.353-4.416 8.831-5.558 7.309-6.7 5.045-7.27 2.043-7.27H-3.247V-20.49H-11.539Z" fill="#c2c1c1"/>
<path transform="matrix(1,0,0,-1,84.7363,106.3149)" d="M0 0 83.175-50.309 109.844-35.396 .009 32.86Z" fill="#9f1c36"/>
<path transform="matrix(1,0,0,-1,171.8545,76.022)" d="M0 0-83.175 50.304-109.849 35.397-.009-32.859Z" fill="#9f1c36"/>
<path transform="matrix(1,0,0,-1,68.0342,118.329608)" d="M0 0-.015 .004V52.266L-28.848 69.922V-15.987H-28.78L9.729-39.484 37.423-23.473 0-.021Z" fill="#c2c1c1"/>
<path transform="matrix(1,0,0,-1,217.2441,48.5186)" d="M0 0-38.917 23.747-66.612 7.732-28.742-15.846-28.762-68.255 .067-85.913V0Z" fill="#c2c1c1"/>
</g>
</g>
</svg>
